# Blender 4.0.2
# www.blender.org
mtllib Gemma3.mtl
o Cube
v 0.267342 1.317946 -0.294824
v 0.210901 -0.227352 -0.221319
v 0.267342 1.317946 0.299747
v 0.210901 -0.227351 0.241993
v -0.249622 1.317946 -0.294824
v -0.204994 -0.227351 -0.221319
v -0.249622 1.317946 0.299747
v -0.204994 -0.227351 0.241993
v -0.240838 -0.396666 0.011200
v 0.002306 -0.396666 -0.257750
v 0.290227 0.545297 -0.316026
v -0.278414 0.545297 0.328825
v 0.290227 0.545297 0.328825
v -0.278414 0.545297 -0.316026
v 0.009507 1.487261 0.377501
v 0.335004 1.487261 0.001599
v 0.002306 -0.396666 0.280150
v -0.315990 1.487261 0.001599
v 0.009507 1.487261 -0.374303
v 0.245450 -0.396666 0.011200
v 0.010865 1.842584 -0.000212
v 0.005907 0.545297 0.450449
v -0.385664 0.545297 0.006399
v 0.000948 -0.751989 0.013011
v 0.397477 0.545297 0.006399
v 0.005907 0.545297 -0.437650
vn 0.6085 0.5934 -0.5269
vn -0.6068 0.5964 -0.5255
vn -0.6049 0.5998 0.5238
vn 0.6066 0.5968 0.5252
vn 0.3525 -0.1554 0.9228
vn 0.3608 0.0594 0.9307
vn -0.3608 0.0622 0.9306
vn -0.3527 -0.1528 0.9232
vn -0.9486 -0.1345 0.2865
vn -0.9568 0.0606 0.2842
vn -0.9570 0.0577 -0.2843
vn -0.9482 -0.1373 -0.2864
vn -0.6387 -0.5086 -0.5774
vn 0.6371 -0.5122 -0.5760
vn 0.6390 -0.5079 0.5777
vn -0.6406 -0.5042 0.5791
vn 0.9473 -0.1444 -0.2861
vn 0.9574 0.0504 -0.2844
vn 0.9572 0.0533 0.2843
vn 0.9476 -0.1416 0.2862
vn -0.3521 -0.1620 -0.9218
vn -0.3610 0.0527 -0.9311
vn 0.3610 0.0500 -0.9312
vn 0.3520 -0.1646 -0.9214
vt 0.625000 0.500000
vt 0.750000 0.500000
vt 0.750000 0.625000
vt 0.625000 0.625000
vt 0.875000 0.500000
vt 0.875000 0.625000
vt 0.875000 0.750000
vt 0.750000 0.750000
vt 0.625000 0.750000
vt 0.375000 0.750000
vt 0.500000 0.750000
vt 0.500000 0.875000
vt 0.375000 0.875000
vt 0.625000 0.875000
vt 0.625000 1.000000
vt 0.500000 1.000000
vt 0.375000 1.000000
vt 0.375000 0.000000
vt 0.500000 0.000000
vt 0.500000 0.125000
vt 0.375000 0.125000
vt 0.625000 0.000000
vt 0.625000 0.125000
vt 0.625000 0.250000
vt 0.500000 0.250000
vt 0.375000 0.250000
vt 0.125000 0.500000
vt 0.250000 0.500000
vt 0.250000 0.625000
vt 0.125000 0.625000
vt 0.375000 0.500000
vt 0.375000 0.625000
vt 0.250000 0.750000
vt 0.125000 0.750000
vt 0.500000 0.500000
vt 0.500000 0.625000
vt 0.500000 0.375000
vt 0.375000 0.375000
vt 0.625000 0.375000
s 0
usemtl Material
f 1/1/1 19/2/1 21/3/1 16/4/1
f 19/2/2 5/5/2 18/6/2 21/3/2
f 21/3/3 18/6/3 7/7/3 15/8/3
f 16/4/4 21/3/4 15/8/4 3/9/4
f 4/10/5 13/11/5 22/12/5 17/13/5
f 13/11/6 3/9/6 15/14/6 22/12/6
f 22/12/7 15/14/7 7/15/7 12/16/7
f 17/13/8 22/12/8 12/16/8 8/17/8
f 8/18/9 12/19/9 23/20/9 9/21/9
f 12/19/10 7/22/10 18/23/10 23/20/10
f 23/20/11 18/23/11 5/24/11 14/25/11
f 9/21/12 23/20/12 14/25/12 6/26/12
f 6/27/13 10/28/13 24/29/13 9/30/13
f 10/28/14 2/31/14 20/32/14 24/29/14
f 24/29/15 20/32/15 4/10/15 17/33/15
f 9/30/16 24/29/16 17/33/16 8/34/16
f 2/31/17 11/35/17 25/36/17 20/32/17
f 11/35/18 1/1/18 16/4/18 25/36/18
f 25/36/19 16/4/19 3/9/19 13/11/19
f 20/32/20 25/36/20 13/11/20 4/10/20
f 6/26/21 14/25/21 26/37/21 10/38/21
f 14/25/22 5/24/22 19/39/22 26/37/22
f 26/37/23 19/39/23 1/1/23 11/35/23
f 10/38/24 26/37/24 11/35/24 2/31/24
